<?xml version="1.0" ?>
<!-- Uploaded to: SVG Repo, www.svgrepo.com, Generator: SVG Repo Mixer Tools -->
<svg width="800px" height="800px" viewBox="0 0 64 64" xmlns="http://www.w3.org/2000/svg">
<defs>
<style>.cls-1{fill:none;}.cls-2{fill:#f2f2fc;}.cls-3{fill:#61729b;}.cls-4{fill:#fdbf00;}.cls-5{fill:#2c3b73;}</style>
</defs>
<title/>
<g data-name="online shoping" id="online_shoping">
<path class="cls-1" d="M37,10a5,5,0,0,0-10,0v1H37Z"/>
<path class="cls-2" d="M55,17H45V36a1,1,0,0,1-1,1H20a1,1,0,0,1-1-1V17H9V51H55ZM48,48.963H16a1,1,0,0,1,0-2H48a1,1,0,0,1,0,2Zm0-3.982H16a1,1,0,0,1,0-2H48a1,1,0,0,1,0,2ZM48,41H16a1,1,0,0,1,0-2H48a1,1,0,0,1,0,2Z"/>
<path class="cls-3" d="M37,56a1,1,0,0,1-1,1H28a1,1,0,0,1-1-1V53H5.071A7.006,7.006,0,0,0,12,59H52a7.006,7.006,0,0,0,6.929-6H37Z"/>
<path class="cls-4" d="M43,13H39v3a1,1,0,0,1-2,0V13H27v3a1,1,0,0,1-2,0V13H21V35H43Z"/>
<path d="M48,39H16a1,1,0,0,0,0,2H48a1,1,0,0,0,0-2Z"/>
<path d="M48,42.981H16a1,1,0,0,0,0,2H48a1,1,0,0,0,0-2Z"/>
<path d="M48,46.963H16a1,1,0,0,0,0,2H48a1,1,0,0,0,0-2Z"/>
<rect class="cls-5" height="2" width="6" x="29" y="53"/>
<path d="M60,51H57V16a1,1,0,0,0-1-1H45V12a1,1,0,0,0-1-1H39V10a7,7,0,0,0-14,0v1H20a1,1,0,0,0-1,1v3H8a1,1,0,0,0-1,1V51H4a1,1,0,0,0-1,1,9,9,0,0,0,9,9H52a9,9,0,0,0,9-9A1,1,0,0,0,60,51ZM27,10a5,5,0,0,1,10,0v1H27Zm-6,3h4v3a1,1,0,0,0,2,0V13H37v3a1,1,0,0,0,2,0V13h4V35H21ZM9,17H19V36a1,1,0,0,0,1,1H44a1,1,0,0,0,1-1V17H55V51H9ZM35,53v2H29V53Zm17,6H12a7.006,7.006,0,0,1-6.929-6H27v3a1,1,0,0,0,1,1h8a1,1,0,0,0,1-1V53H58.929A7.006,7.006,0,0,1,52,59Z"/>
</g>
</svg>